<svg id="Layer_1" data-name="Layer 1" xmlns="http://www.w3.org/2000/svg" viewBox="0 0 500 500"><defs><style>.cls-1,.cls-9{fill:#fff;}.cls-2{fill:#333;}.cls-3{fill:#4f4f4f;}.cls-4{fill:none;stroke:#000;stroke-width:20px;}.cls-4,.cls-7{stroke-linecap:round;stroke-linejoin:round;}.cls-5{fill:#d8d8d7;}.cls-6{fill:#383838;}.cls-7{fill:#30302f;stroke:#3f4040;stroke-width:20.49px;}.cls-8{opacity:0.3;}.cls-9{opacity:0.1;}</style></defs><title>camera</title><path class="cls-1" d="M362.46,406.77H472.68a15.45,15.45,0,0,0,15.45-15.45V98.58a15.45,15.45,0,0,0-15.45-15.44H235v36.25H27.32a15.45,15.45,0,0,0-15.45,15.45V391.32a15.45,15.45,0,0,0,15.45,15.45H242.68"/><path class="cls-2" d="M94.53,119.39H39.31V103c0-13.55,11-17.71,24.55-17.71H70c13.56,0,24.55,4.16,24.55,17.71Z"/><path class="cls-2" d="M199.34,119.39H127.75V103c0-13.55,11-17.71,24.54-17.71H174.8c13.56,0,24.54,4.16,24.54,17.71Z"/><path class="cls-3" d="M27.32,406.77H472.68a15.45,15.45,0,0,0,15.45-15.45V171.4H362.46l-63.62-16.31h-287V391.32A15.45,15.45,0,0,0,27.32,406.77Z"/><path class="cls-4" d="M27.32,406.77H472.68a15.45,15.45,0,0,0,15.45-15.45V171.4H362.46l-63.62-16.31h-287V391.32A15.45,15.45,0,0,0,27.32,406.77Z"/><circle class="cls-5" cx="298.84" cy="287.19" r="132.1"/><circle class="cls-6" cx="298.84" cy="287.19" r="88.48"/><circle class="cls-7" cx="298.84" cy="287.19" r="45.82"/><rect class="cls-4" x="400.14" y="114.7" width="51.52" height="29.44"/><rect class="cls-4" x="277.68" y="114.7" width="66.4" height="14.72"/><rect class="cls-8" x="94.53" y="119.39" width="25.29" height="287.38"/><path class="cls-9" d="M222.52,280.11c0,1,.1,1.88.14,2.82a71.75,71.75,0,0,0,104.69-63.81c0-1-.11-1.88-.14-2.82a71.75,71.75,0,0,0-104.69,63.81Z"/><circle class="cls-9" cx="315.82" cy="309.63" r="16.98"/><path class="cls-4" d="M362.46,406.77H472.68a15.45,15.45,0,0,0,15.45-15.45V98.58a15.45,15.45,0,0,0-15.45-15.44H235v36.25H27.32a15.45,15.45,0,0,0-15.45,15.45V391.32a15.45,15.45,0,0,0,15.45,15.45H242.68"/><path class="cls-4" d="M94.53,119.39H39.31V103c0-13.55,11-17.71,24.55-17.71H70c13.56,0,24.55,4.16,24.55,17.71Z"/><path class="cls-4" d="M199.34,119.39H127.75V103c0-13.55,11-17.71,24.54-17.71H174.8c13.56,0,24.54,4.16,24.54,17.71Z"/><circle class="cls-4" cx="298.84" cy="287.19" r="132.1"/><circle class="cls-4" cx="298.84" cy="287.19" r="88.48"/></svg>